<?xml version="1.0" encoding="utf-8"?>
<!-- Generator: Adobe Illustrator 23.0.4, SVG Export Plug-In . SVG Version: 6.00 Build 0)  -->
<svg version="1.1" id="Laag_1" xmlns="http://www.w3.org/2000/svg" xmlns:xlink="http://www.w3.org/1999/xlink" x="0px" y="0px"
	 viewBox="0 0 102.6 40" style="enable-background:new 0 0 102.6 40;" xml:space="preserve">
<path d="M0,33.2C0,37.7,2.1,40,6.4,40h3.4c4.3,0,6.4-2.3,6.4-6.8v-2.6h-5.4v2.2c0,1.6-0.7,2.3-2.1,2.3H7.5c-1.4,0-2.1-0.8-2.1-2.3
	V21C3.5,20.5,1.7,20,0,19.4V33.2L0,33.2z M5.3,7.2c0-1.6,0.7-2.3,2.1-2.3h1.1c1.1-0.2,2.2,0.6,2.4,1.7c0,0.2,0,0.4,0,0.6v4.1h5.4
	V6.8c0-4.5-2.1-6.8-6.4-6.8H6.4C2.1,0,0,2.3,0,6.8v9.5c1.7,0.6,3.5,1.2,5.3,1.8V7.2L5.3,7.2L5.3,7.2z M32.5,40h5.1l-2.8-13.8
	c-1.7-0.1-3.4-0.3-5.1-0.5L32.5,40z M37.5,16.7V6.8c0-4.6-2.1-6.9-6.1-6.9H20.9v21.7c4.3,0.7,8.8,1.3,13.4,1.7
	C36.5,22.4,37.5,20.2,37.5,16.7L37.5,16.7L37.5,16.7z M29.8,19.3h-3.5V4.8h3.5c1.6,0,2.4,1,2.4,2.9v8.6
	C32.2,18.3,31.4,19.3,29.8,19.3L29.8,19.3L29.8,19.3z M20.9,40h5.4V25.3c-1.8-0.2-3.6-0.5-5.4-0.8V40L20.9,40z M59.5,0h-5.3v24
	c1.8,0,3.6-0.1,5.3-0.2V0L59.5,0z M47.5,0h-5.4v23.8c1.8,0.1,3.5,0.1,5.3,0.2L47.5,0L47.5,0L47.5,0z M54.2,32.5
	c0,1.7-0.7,2.6-2.2,2.6h-2.2c-1.6,0-2.3-0.9-2.3-2.6v-5.8c-1.8,0-3.6-0.1-5.3-0.1v5.7c0,5.1,2.1,7.6,6.4,7.6h4.5
	c4.3,0,6.5-2.5,6.5-7.6v-5.8c-1.8,0.1-3.6,0.1-5.3,0.2L54.2,32.5L54.2,32.5L54.2,32.5z M69.2,4.8h3.7c1.6,0,2.4,1,2.4,2.9v14.6
	c1.8-0.2,3.6-0.5,5.3-0.8V7.7c0-5.1-2.6-7.7-7.6-7.7h-9.3v23.5c1.8-0.1,3.6-0.3,5.4-0.5L69.2,4.8L69.2,4.8L69.2,4.8z M75.3,33.4
	c0,1.2-0.7,1.8-2.1,1.8h-4v-9.2c-1.8,0.2-3.6,0.3-5.3,0.5V40h10.4c4.3,0,6.4-1.9,6.4-5.8v-9.8c-1.8,0.3-3.5,0.6-5.3,0.8L75.3,33.4
	L75.3,33.4L75.3,33.4z M97.2,20.8v12c0,1.6-0.7,2.3-2.1,2.3h-2.7c-1.1,0.2-2.2-0.6-2.4-1.8c0-0.2,0-0.4,0-0.5V22.6
	c-1.8,0.4-3.5,0.8-5.3,1.1v9.5c0,4.5,2.2,6.8,6.5,6.8h5c4.3,0,6.5-2.3,6.5-6.8v-14C100.8,19.7,99,20.3,97.2,20.8z M90,7.2
	c-0.2-1.1,0.6-2.2,1.8-2.3c0.2,0,0.4,0,0.5,0h2.5c1.1-0.2,2.2,0.6,2.4,1.7c0,0.2,0,0.4,0,0.6v10.7c1.8-0.5,3.6-1.1,5.3-1.7V6.8
	c0-4.6-2.1-6.9-6.4-6.9H91c-4.3,0-6.4,2.3-6.4,6.8v14c1.8-0.3,3.6-0.7,5.3-1.1L90,7.2L90,7.2L90,7.2z"/>
</svg>
