<?xml version="1.0" encoding="utf-8"?>
<!-- Generator: Adobe Illustrator 22.0.1, SVG Export Plug-In . SVG Version: 6.00 Build 0)  -->
<svg version="1.1" xmlns="http://www.w3.org/2000/svg" xmlns:xlink="http://www.w3.org/1999/xlink" x="0px" y="0px"
	 viewBox="0 0 136.7 70.2" style="enable-background:new 0 0 136.7 70.2;" xml:space="preserve">
<style type="text/css">
	.st0{fill:#333333;}
	.st1{fill:#777777;}
</style>
<path class="st0" d="M0,44.3c0,6,2.8,9,8.5,9h4.6c5.7,0,8.5-3,8.5-9.1v-3.4h-7.1v2.9c0,2.1-0.9,3.1-2.8,3.1H10c-1.9,0-2.8-1-2.8-3.1
	V28.1c-2.4-0.7-4.8-1.4-7.1-2.2V44.3L0,44.3z M7.1,9.6c0-2.1,0.9-3.1,2.8-3.1h1.4c1.5-0.2,3,0.8,3.2,2.3c0,0.3,0,0.5,0,0.8v5.5h7.1
	v-6c0-6.1-2.8-9.1-8.5-9.1H8.6C2.9,0,0,3,0,9.1v12.7c2.3,0.8,4.7,1.6,7.1,2.3L7.1,9.6L7.1,9.6L7.1,9.6z M43.4,53.3h6.8L46.3,35
	c-2.3-0.2-4.6-0.4-6.8-0.6L43.4,53.3z M50,22.3V9.2C50,3.1,47.3,0,41.8,0h-14v28.8c5.8,1,11.8,1.7,17.9,2.2
	C48.6,29.8,50,26.9,50,22.3L50,22.3L50,22.3z M39.7,25.7H35V6.5h4.7c2.1,0,3.2,1.3,3.2,3.9v11.5C42.9,24.4,41.8,25.7,39.7,25.7
	L39.7,25.7L39.7,25.7z M27.9,53.3H35V33.7c-2.4-0.3-4.8-0.6-7.1-1V53.3L27.9,53.3z M79.4,0h-7.1v32c2.4,0,4.8-0.1,7.1-0.2V0L79.4,0z
	 M63.4,0h-7.2v31.8c2.4,0.1,4.7,0.2,7.1,0.2L63.4,0L63.4,0L63.4,0z M72.2,43.4c0,2.3-1,3.5-2.9,3.5h-2.9c-2.1,0-3.1-1.2-3.1-3.5
	v-7.7c-2.4,0-4.8-0.1-7.1-0.2v7.6c0,6.8,2.8,10.2,8.5,10.2h6c5.7,0,8.6-3.4,8.6-10.1v-7.8c-2.4,0.1-4.8,0.2-7.1,0.2L72.2,43.4
	L72.2,43.4L72.2,43.4z M92.2,6.5h5c2.1,0,3.2,1.3,3.2,3.9v19.5c2.4-0.3,4.8-0.7,7.1-1.1V10.3C107.5,3.4,104.1,0,97.5,0H85.1v31.4
	c2.4-0.2,4.8-0.4,7.1-0.6L92.2,6.5L92.2,6.5L92.2,6.5z M100.4,44.5c0,1.6-0.9,2.4-2.8,2.4h-5.3V34.5c-2.4,0.2-4.7,0.4-7.1,0.6v18.2
	h13.8c5.7,0,8.5-2.6,8.5-7.7v-13c-2.3,0.4-4.7,0.8-7.1,1L100.4,44.5L100.4,44.5L100.4,44.5z M129.6,27.7v16c0,2.1-0.9,3.1-2.8,3.1
	h-3.6c-1.5,0.2-2.9-0.9-3.1-2.4c0-0.2,0-0.5,0-0.7V30.2c-2.3,0.5-4.7,1-7.1,1.5v12.6c0,6,2.9,9.1,8.6,9.1h6.7c5.7,0,8.6-3,8.6-9.1
	V25.5C134.4,26.3,132,27,129.6,27.7z M120,9.6c-0.2-1.5,0.8-2.9,2.4-3.1c0.2,0,0.5,0,0.7,0h3.3c1.5-0.2,3,0.8,3.2,2.3
	c0,0.3,0,0.5,0,0.8v14.2c2.4-0.7,4.8-1.5,7.1-2.3V9.2c0-6.1-2.8-9.1-8.5-9.1h-6.9c-5.7,0-8.5,3-8.5,9.1v18.7c2.4-0.5,4.8-1,7.1-1.5
	L120,9.6L120,9.6L120,9.6z"/>
<g>
	<path class="st1" d="M6.4,66.4c0,1.7-1.3,2.9-3.1,2.9c-1.8,0-3.1-1.3-3.1-2.9c0-1.7,1.3-2.9,3.1-2.9C5.1,63.5,6.4,64.7,6.4,66.4z
		 M1.7,66.4c0,1,0.7,1.7,1.6,1.7c0.9,0,1.6-0.7,1.6-1.7s-0.7-1.7-1.6-1.7C2.4,64.7,1.7,65.4,1.7,66.4z"/>
	<path class="st1" d="M9.8,67.6L9.8,67.6H8.7v1.6H7.2v-5.7h2.6c1.5,0,2.4,0.7,2.4,2c0,0.9-0.4,1.5-1,1.8l1.2,1.9h-1.7L9.8,67.6z
		 M9.8,66.5c0.6,0,1-0.3,1-0.9c0-0.6-0.4-0.9-1-0.9H8.7v1.8H9.8z"/>
	<path class="st1" d="M18.2,66.3v2.2c-0.6,0.4-1.6,0.7-2.4,0.7c-1.7,0-3.1-1.3-3.1-2.9c0-1.7,1.4-2.9,3.2-2.9c0.9,0,1.8,0.3,2.3,0.9
		l-0.8,1c-0.4-0.4-1-0.6-1.5-0.6c-0.9,0-1.7,0.7-1.7,1.7c0,1,0.7,1.7,1.7,1.7c0.3,0,0.7-0.1,1-0.3v-1.5H18.2z"/>
	<path class="st1" d="M20.5,68.2L20,69.3h-1.5l2.5-5.7h1.5l2.4,5.7h-1.6L23,68.2H20.5z M21.7,65l-0.8,2.1h1.7L21.7,65z"/>
	<path class="st1" d="M29.5,69.3l-2.6-3.5v3.5h-1.4v-5.7h1.3l2.7,3.5v-3.5h1.4v5.7H29.5z"/>
	<path class="st1" d="M32,69.3v-5.7h1.5v5.7H32z"/>
	<path class="st1" d="M39.6,64.4l-0.8,1c-0.4-0.5-0.9-0.7-1.4-0.7c-0.9,0-1.6,0.7-1.6,1.7c0,1,0.7,1.7,1.6,1.7c0.5,0,1-0.3,1.4-0.7
		l0.9,0.9c-0.6,0.6-1.5,1.1-2.4,1.1c-1.7,0-3-1.3-3-3c0-1.7,1.3-2.9,3.1-2.9C38.2,63.5,39,63.8,39.6,64.4z"/>
	<path class="st1" d="M42.2,70.2v-7.5h1.1v7.5H42.2z"/>
	<path class="st1" d="M47.9,69.3l-2.2-5.7h1.6l1.5,4.2l1.5-4.2h1.5l-2.3,5.7H47.9z"/>
	<path class="st1" d="M53.7,64.7v1.1h2.7V67h-2.7v1.2h3.1v1.1h-4.6v-5.7h4.5v1.1H53.7z"/>
	<path class="st1" d="M62.8,66.3v2.2c-0.6,0.4-1.6,0.7-2.4,0.7c-1.7,0-3.1-1.3-3.1-2.9c0-1.7,1.4-2.9,3.2-2.9c0.9,0,1.8,0.3,2.3,0.9
		l-0.8,1c-0.4-0.4-1-0.6-1.5-0.6c-0.9,0-1.7,0.7-1.7,1.7c0,1,0.7,1.7,1.7,1.7c0.3,0,0.7-0.1,1-0.3v-1.5H62.8z"/>
	<path class="st1" d="M65.1,68.2l-0.4,1.1h-1.5l2.5-5.7h1.5l2.4,5.7H68l-0.4-1.1H65.1z M66.3,65l-0.8,2.1h1.7L66.3,65z"/>
	<path class="st1" d="M74.1,69.3l-2.6-3.5v3.5h-1.4v-5.7h1.3l2.7,3.5v-3.5h1.4v5.7H74.1z"/>
	<path class="st1" d="M78.4,70.2v-7.5h1.1v7.5H78.4z"/>
	<path class="st1" d="M84,64.7V66h2.6v1.1H84v2.1h-1.5v-5.7h4.3v1.1H84z"/>
	<path class="st1" d="M93.3,66.4c0,1.7-1.3,2.9-3.1,2.9c-1.8,0-3.1-1.3-3.1-2.9c0-1.7,1.3-2.9,3.1-2.9C92,63.5,93.3,64.7,93.3,66.4z
		 M88.6,66.4c0,1,0.7,1.7,1.6,1.7c0.9,0,1.6-0.7,1.6-1.7s-0.7-1.7-1.6-1.7S88.6,65.4,88.6,66.4z"/>
	<path class="st1" d="M100,66.4c0,1.7-1.3,2.9-3.1,2.9c-1.8,0-3.1-1.3-3.1-2.9c0-1.7,1.3-2.9,3.1-2.9C98.7,63.5,100,64.7,100,66.4z
		 M95.3,66.4c0,1,0.7,1.7,1.6,1.7c0.9,0,1.6-0.7,1.6-1.7s-0.7-1.7-1.6-1.7S95.3,65.4,95.3,66.4z"/>
	<path class="st1" d="M103.3,63.5c1.8,0,3.1,1.2,3.1,2.9c0,1.7-1.3,2.9-3.1,2.9h-2.4v-5.7H103.3z M102.3,68.1h1
		c0.9,0,1.5-0.7,1.5-1.7c0-1-0.7-1.7-1.6-1.7h-1V68.1z"/>
	<path class="st1" d="M109,70.2v-7.5h1.1v7.5H109z"/>
	<path class="st1" d="M117.6,64.1l-0.5,1.1c-0.6-0.4-1.4-0.6-1.8-0.6c-0.4,0-0.6,0.1-0.6,0.4c0,1,3,0.4,3,2.5c0,1.1-1,1.8-2.3,1.8
		c-1,0-1.9-0.4-2.6-0.9l0.6-1.1c0.6,0.5,1.5,0.9,2.1,0.9c0.5,0,0.7-0.2,0.7-0.5c0-1-3-0.4-3-2.4c0-1.1,0.9-1.7,2.3-1.7
		C116.2,63.5,117,63.7,117.6,64.1z"/>
	<path class="st1" d="M122.3,69.3V67H120v2.2h-1.5v-5.7h1.5v2.4h2.4v-2.4h1.5v5.7H122.3z"/>
	<path class="st1" d="M130.8,66.4c0,1.7-1.3,2.9-3.1,2.9c-1.8,0-3.1-1.3-3.1-2.9c0-1.7,1.3-2.9,3.1-2.9
		C129.5,63.5,130.8,64.7,130.8,66.4z M126.1,66.4c0,1,0.7,1.7,1.6,1.7c0.9,0,1.6-0.7,1.6-1.7s-0.7-1.7-1.6-1.7
		S126.1,65.4,126.1,66.4z"/>
	<path class="st1" d="M134.2,63.5c1.5,0,2.3,0.7,2.3,2c0,1.3-0.8,2.1-2.3,2.1h-1v1.6h-1.5v-5.7H134.2z M133.1,66.5h1
		c0.6,0,1-0.3,1-0.9c0-0.6-0.4-0.9-1-0.9h-1V66.5z"/>
</g>
</svg>
